<svg width="21" height="15" viewBox="0 0 21 15" fill="none" xmlns="http://www.w3.org/2000/svg">
<path d="M20.3257 2.89296C20.1958 2.71151 20.0215 2.62079 19.8027 2.62079H5.87793L5.5 1.63689C5.4043 1.31431 5.27441 1.03877 5.11035 0.810279C4.94629 0.581784 4.77197 0.420494 4.5874 0.326408C4.40283 0.232322 4.24219 0.168478 4.10547 0.134876C3.96875 0.101274 3.83203 0.0844727 3.69531 0.0844727H0.885742C0.708008 0.0844727 0.557617 0.144957 0.43457 0.265924C0.311523 0.386892 0.25 0.541462 0.25 0.729634C0.25 0.837161 0.277344 0.941327 0.332031 1.04213C0.386719 1.14294 0.465332 1.22023 0.567871 1.27399C0.67041 1.32775 0.776367 1.35463 0.885742 1.35463H3.69531C3.75 1.35463 3.80127 1.36135 3.84912 1.3748C3.89697 1.38824 3.96191 1.44536 4.04395 1.54617C4.12598 1.64697 4.19434 1.79818 4.24902 1.9998L7.19043 10.0764C7.21777 10.1571 7.26221 10.2343 7.32373 10.3083C7.38525 10.3822 7.45703 10.4393 7.53906 10.4796C7.62109 10.52 7.70996 10.5401 7.80566 10.5401H16.665C16.8018 10.5401 16.9282 10.4998 17.0444 10.4191C17.1606 10.3385 17.2393 10.2377 17.2803 10.1167L20.418 3.48772C20.4863 3.27267 20.4556 3.07442 20.3257 2.89296ZM16.2139 9.24979H8.31836L6.22656 3.91111H18.8594L16.2139 9.24979ZM15.0312 11.2398C14.5801 11.2398 14.1938 11.3977 13.8726 11.7136C13.5513 12.0294 13.3906 12.4092 13.3906 12.8527C13.3906 13.2963 13.5513 13.676 13.8726 13.9918C14.1938 14.3077 14.5801 14.4656 15.0312 14.4656C15.4824 14.4656 15.8687 14.3077 16.1899 13.9918C16.5112 13.676 16.6719 13.2963 16.6719 12.8527C16.6719 12.4092 16.5112 12.0294 16.1899 11.7136C15.8687 11.3977 15.4824 11.2398 15.0312 11.2398ZM9.125 11.2398C8.82422 11.2398 8.54736 11.3137 8.29443 11.4616C8.0415 11.6094 7.84326 11.8043 7.69971 12.0463C7.55615 12.2882 7.48438 12.557 7.48438 12.8527C7.48438 13.2963 7.64502 13.676 7.96631 13.9918C8.2876 14.3077 8.67383 14.4656 9.125 14.4656C9.57617 14.4656 9.9624 14.3077 10.2837 13.9918C10.605 13.676 10.7656 13.2963 10.7656 12.8527C10.7656 12.7452 10.7554 12.6377 10.7349 12.5301C10.7144 12.4226 10.6836 12.3218 10.6426 12.2277C10.6016 12.1336 10.5503 12.0429 10.4888 11.9555C10.4272 11.8682 10.3589 11.7875 10.2837 11.7136C10.2085 11.6397 10.1265 11.5725 10.0376 11.512C9.94873 11.4515 9.85645 11.4011 9.76074 11.3608C9.66504 11.3204 9.5625 11.2902 9.45312 11.27C9.34375 11.2499 9.23438 11.2398 9.125 11.2398Z" fill="white"/>
</svg>
